# xmcd CD database file
#
# Track frame offsets:
#	150
#	22966
#	40186
#	56086
#	76043
#	91913
#	110178
#	123079
#	141574
#	165356
#	191327
#	205104
#	224911
#	233768
#	236055
#
# Disc length: 3193 seconds
#
# Revision: 1
# Processed by: cddbd v1.5.2PL0 Copyright (c) Steve Scherf et al.
# Submitted via: CDex 1.94
#
DISCID=cc0c770f
DTITLE=Karl Mullen - Karl Mullen Piano
DYEAR=2017
DGENRE=Jazz
TTITLE0=Chokin Boogie (K Mullen)
TTITLE1=Sunny Afternoon (R Davies)
TTITLE2=Life On Mars (D Bowie)
TTITLE3=Easy Like Sunday Morning (L Richie)
TTITLE4=My Baby Just Cares For Me (Donaldson/Kahn)
TTITLE5=Campanology Blues (K Mullen)
TTITLE6=Killer Queen (F Mercury)
TTITLE7=In The Mood Boogie (G Miller)
TTITLE8=Mad World (R Orzabal)
TTITLE9=Bohemian Rhapsody (F Mercury)
TTITLE10=House Of Fun (M Barson)
TTITLE11=Walking On The Moon (Sting)
TTITLE12=The Flight Of The Bumblebee Boogie (Rachminov/Arranged by K Mullen)
TTITLE13=Family Guy Theme (W Murphy)
TTITLE14=Final 20 seconds of Karl Mullen messing about
EXTD=YEAR: 2017
EXTT0=
EXTT1=
EXTT2=
EXTT3=
EXTT4=
EXTT5=
EXTT6=
EXTT7=
EXTT8=
EXTT9=
EXTT10=
EXTT11=
EXTT12=
EXTT13=
EXTT14=
PLAYORDER=
